<?xml version="1.0" encoding="utf-8"?>
<!-- Generator: Adobe Illustrator 23.0.4, SVG Export Plug-In . SVG Version: 6.00 Build 0)  -->
<svg version="1.1" id="Layer_1" xmlns="http://www.w3.org/2000/svg" xmlns:xlink="http://www.w3.org/1999/xlink" x="0px" y="0px"
	 viewBox="0 0 512 512" style="enable-background:new 0 0 512 512;" xml:space="preserve">
<style type="text/css">
	.st0{fill:#0094C5;}
	.st1{fill:#FFFFFF;}
</style>
<circle class="st0" cx="256.2" cy="256.2" r="242"/>
<path class="st1" d="M452,236.1c2.2-6.2,3.4-12.9,3.7-20.4c1-28.4-16.6-56.2-45.3-72.7c-4.2-20.7-15.4-38.6-32.2-51.2
	c-15.8-11.9-35.3-18.2-55.7-18.2c-0.3,0-0.7,0-1,0c-27-22.3-46.5-25.5-63.6-25.5c-17,0-37.9,3.1-65.1,25.5
	c-20.7-0.2-40.7,6.1-56.7,18.2c-16.8,12.6-28,30.6-32.2,51.2c-27.8,16.1-45.4,43.1-45.4,70.7c0,8.2,1.2,15.6,3.7,22.5
	c-5.4,19-6,52.4-6,52.8c-0.2,21.1,6.8,50.4,22.7,68.6c28.3,32.2,71.4,55.1,102.6,68.7c33.7,14.7,65.5,23.8,75.6,23.8
	c10.8,0,42.7-9.8,71.2-21.8c8-3.4,11.7-12.6,8.3-20.6c-3.4-8-12.6-11.7-20.6-8.3c-29.6,12.5-53.6,18.8-59,19.3
	c-12.2-1.3-109.1-30-154.6-81.8c-9.8-11.2-15-32.9-14.9-47.6c0-3.1,0.2-6.8,0.4-10.7c17.8,26.1,44.5,61.9,73.6,89.5
	c3,2.9,6.9,4.3,10.8,4.3c4.2,0,8.3-1.6,11.4-4.9c6-6.3,5.7-16.2-0.6-22.2c-45.3-43-86.3-110.4-90.2-117c-2-4.1-3-8.7-3-14.5
	c0-13.1,7.7-26.6,20.2-36.9c15.8,40.1,40.3,87.2,60.5,126c4.3,8.2,8.3,15.9,12.1,23.2c2.8,5.4,8.3,8.5,14,8.5c2.4,0,4.9-0.6,7.2-1.7
	c7.7-4,10.7-13.4,6.8-21.1c-3.8-7.4-7.8-15.2-12.1-23.4c-22.4-42.9-50-96-64.3-136.7c4.9-30.9,32.1-46.5,57.7-46.6
	c6,54,14.2,101.7,21.5,144.1c3.1,18.1,6.1,35.2,8.5,50.9c1.2,7.8,7.9,13.3,15.5,13.3c0.8,0,1.6-0.1,2.4-0.2
	c8.6-1.3,14.4-9.3,13.1-17.9c-2.5-16-5.4-33.2-8.6-51.5c-7.7-44.8-16.5-95.5-22.4-152.9c17.1-11.4,28.5-11.5,35.9-11.5
	c7.3,0,17.7,0,34.3,11.4c-6.8,66.9-16.2,126.2-23.8,173.9c-1.7,10.7-3.3,20.8-4.8,30.5c-1.3,8.6,4.5,16.6,13.1,17.9
	c0.8,0.1,1.6,0.2,2.4,0.2c7.6,0,14.3-5.5,15.5-13.3c1.5-9.7,3.1-19.7,4.8-30.4c7.2-45.5,16.1-101.4,22.9-164.6
	c25.6,0.1,52.8,15.7,57.7,46.6c-14.6,41.7-42.6,95.6-65.2,139.1c-3.6,7-7.1,13.7-10.4,20.1c-4,7.7-0.9,17.2,6.8,21.1
	c2.3,1.2,4.8,1.7,7.2,1.7c5.7,0,11.2-3.1,14-8.5c3.3-6.4,6.8-13.1,10.4-20c20.5-39.6,45.4-87.5,61.5-128.5
	c12.9,10.5,20.6,24.5,20.2,37.9c-0.2,5.6-1.2,10-3.1,13.8c0,0,0,0.1-0.1,0.1c0,0,0,0.1,0,0.1c-0.4,0.8-37.7,75.8-88.1,115.5
	c-6.8,5.4-8,15.2-2.6,22c3.1,3.9,7.7,6,12.4,6c3.4,0,6.8-1.1,9.7-3.4c31-24.4,56.9-59.5,74.1-86.5c0.1,2.4,0.2,4.7,0.2,6.8
	c0.1,14.7-5.1,36.4-14.9,47.6c-7.7,8.8-17.5,17.5-29.1,25.9c-7,5.1-8.6,14.9-3.5,21.9c5.1,7,14.9,8.6,21.9,3.5
	c13.5-9.8,25-20.1,34.3-30.6c15.9-18.1,22.9-47.5,22.7-68.6C458,288.5,457.4,255.1,452,236.1z"/>
</svg>
