<?xml version="1.0" encoding="utf-8"?>
<!-- Generator: Adobe Illustrator 23.0.4, SVG Export Plug-In . SVG Version: 6.00 Build 0)  -->
<svg version="1.1" id="Calque_1" xmlns="http://www.w3.org/2000/svg" xmlns:xlink="http://www.w3.org/1999/xlink" x="0px" y="0px"
	 viewBox="0 0 512 512" style="enable-background:new 0 0 512 512;" xml:space="preserve">
<style type="text/css">
	.st0{fill:#0094C5;}
	.st1{fill:#FFFFFF;}
</style>
<circle class="st0" cx="256.2" cy="256.2" r="242"/>
<g>
	<path class="st1" d="M325.7,198.5c3.1-3.1,3.1-8,0-11.1c-3.1-3.1-8-3.1-11.1,0c-3.1,3.1-3.1,8,0,11.1
		C317.6,201.5,322.6,201.5,325.7,198.5z"/>
	<path class="st1" d="M311.7,214.9c-4-1.8-8.6,0-10.4,4c-7.4,16.5-17.2,32.1-25.6,40.5c-3.1,3.1-3,8,0,11.1l0,0
		c3.1,3.1,8.1,3,11.1,0c9.8-9.9,20.6-26.8,28.8-45.2C317.5,221.4,315.7,216.7,311.7,214.9z"/>
	<path class="st1" d="M219,360.6c8.4-1.2,16.2-5.1,22.2-11.1l34.4-34.4l37.3,37.3c7.4,7.4,18.4,8.8,27.2,4.4l59.9-29.9
		c18.5,12,43,9.7,58.9-6.3c16.5-16.5,42.6-68.5,22.2-88.9c-3.1-3.1-8-3.1-11.1,0l-33.3,33.3c-3.1,3.1-8,3.1-11.1,0l-16.2-16.2
		c-2.8-2.8-7.2-3.1-10.3-0.7c-2.6,2-4.9,3.9-6.8,5.8c-8.9,8.9-13.8,20.7-13.8,33.1l-49.7,14.5l-14.5-14.5c14.5-17,31.7-46.7,39-73.5
		c8.9,4.9,20.4,3.5,27.9-4c5.3-5.3,7.5-12.5,6.7-19.3c13-4.8,27.7-1.7,37.7,8.2c3.1,3.1,8,3.1,11.1,0c3.1-3.1,3.1-8,0-11.1
		c-14.7-14.7-36.7-19-55.7-11.3c-7.6-7.5-19.1-8.7-28-3.7c-1.4-2.7-3.1-5.1-5.1-7.2s-4.5-3.8-7.2-5.1c5-8.9,3.7-20.4-3.7-28
		c7.8-19.1,3.4-41-11.3-55.7c-3.1-3.1-8-3.1-11.1,0c-3.1,3.1-3.1,8,0,11.1c10,10,13.1,24.7,8.2,37.7c-6.9-0.8-14.1,1.5-19.3,6.7
		c-7.6,7.6-8.9,19-4,27.9c-26.8,7.3-56.5,24.5-73.5,39l-13.6-13.6l14.8-50.6c12-0.3,23.3-5.2,32-13.8c1.9-1.9,3.8-4.2,5.8-6.8
		c2.4-3.1,2.1-7.5-0.7-10.3l-16.2-16.2c-3.1-3.1-3.1-8,0-11.1l33.3-33.3c3.1-3.1,3.1-8,0-11.1c-19.9-19.9-71.7,5.1-88.9,22.2
		c-16.2,16.2-18.2,41.6-5.5,60.1l-29.8,59.6c-2.3,4.7-3.1,10-2,15.2c0,0,0,0.1,0,0.1c0.9,4.5,3.1,8.7,6.4,11.9l36.4,36.4
		c-0.1,0.1-0.2,0.2-0.2,0.2c0,0-0.1,0-0.1,0.1l-34.1,34.1c-6,6-9.9,13.8-11.1,22.2l-11.1,11.1c-5.5,5.5-9.2,12.5-10.7,19.9
		c-7.3-2-11.2-4.1-18.2-4.1c-17.3,0-31.4,14.1-31.4,31.4c0,9.5,4.2,18.5,11.8,24.6c-7.9,12.2-6.5,28.7,4.1,39.3s27.2,12,39.3,4.1
		c6,7.5,15,11.8,24.6,11.8c17.3,0,31.4-14.1,31.4-31.4c0-7-2.1-10.9-4.1-18.2c7.5-1.5,14.4-5.2,19.9-10.7L219,360.6z M414.5,276.2
		c9.2,9.2,24.1,9.2,33.3,0l25.1-25.1c0.9,16.9-13.4,46.7-25.1,58.4c-12.3,12.3-32.1,12.3-44.4,0c-4.8-4.8-7.9-11-8.9-17.7
		c-1.4-9.9,1.8-19.6,8.9-26.7L414.5,276.2z M381.1,302.8c1.6,4.6,3.8,8.8,6.7,12.7l-53.4,26.7l0-25.8L381.1,302.8z M303.1,298.1
		l15.6,15.6l0,22.2l-30.2-30.2C293.4,304.5,298.2,302,303.1,298.1z M202,108C202,108,202,108,202,108c-10.9-12.4-10.2-31.3,1.4-42.9
		c12-12,42.4-26,58.5-25.1l-25.1,25.1c-9.2,9.2-9.2,24.1,0,33.3l11.1,11.1C234.9,122.6,213.7,121.5,202,108z M171.7,179.5l26.8-53.6
		c3.9,2.8,8.2,4.9,12.8,6.4l-13.8,47.3L171.7,179.5z M178,195.2l22.2,0l14.7,14.7c-3.9,4.9-6.4,9.8-7.6,14.6L178,195.2z
		 M370.1,187.3c3.1,3.1,3.1,8,0,11.1s-8,3.1-11.1,0c-1.4-1.4-2.2-3.3-2.3-5.3c0-0.4,0-0.8,0-1.1c0-0.1,0-0.1,0-0.2c0,0,0,0,0-0.1
		c0.2-1.7,1-3.2,2.2-4.4C362.1,184.3,367,184.3,370.1,187.3z M314.5,142.9c3.1-3.1,8-3.1,11.1,0s3.1,8,0,11.1
		c-1.6,1.6-3.4,2.1-4.7,2.3c-0.4,0-0.8,0-1.2,0c-2-0.1-3.8-0.9-5.2-2.3C311.5,150.9,311.5,146,314.5,142.9z M104.6,366
		c-4.9-2.7-8-7.9-8-13.7c0-8.7,7.1-15.7,15.7-15.7c3.9,0,5.2,1,18.4,4.9c0.7,3.1,1.8,6.1,3.2,9L104.6,366z M194.6,296.2l22.2,22.2
		c6.4,6.4,14.7,9.4,23.4,9.9l-10.1,10.1c-9.2,9.2-24.1,9.2-33.3,0l-22.2-22.2c-9.2-9.2-9.2-24.2,0-33.3l10.1-10.1
		C185.1,282.1,188.6,290.2,194.6,296.2z M210.7,246.7c3.7,6.7,9.5,12.9,16.1,19.5c4.1,4.1,7.7,7.5,15.1,15c8.4,8.6,16,16.4,24.4,21
		l-1.7,1.7c-9.1,9.1-27.4,12.6-36.7,3.3l-22.2-22.2c-9.1-9.1-5.7-27.4,3.1-36.4c0.1-0.1,0.1-0.1,0.2-0.2L210.7,246.7z M199.1,358.3
		l-2.3,2.3c-9.2,9.2-24.1,9.2-33.3,0l-11.1-11.1c-9.2-9.2-9.2-24.1,0-33.3l2.3-2.3c2,5,4.9,9.6,8.8,13.4l22.2,22.2
		C189.5,353.4,194.1,356.4,199.1,358.3z M107.9,405.1c-6.1-6.1-6.1-16.1,0-22.2c2.4-2.4,1.5-1.5,35.7-19.8l6.3,6.3
		c-18,33.8-17.4,33.3-19.8,35.7C124,411.2,114,411.2,107.9,405.1z M176.4,400.7c0,8.7-7.1,15.7-15.7,15.7c-5.8,0-11-3.1-13.7-8
		l15.6-29.2c2.8,1.4,5.9,2.5,9,3.2C175.3,395.5,176.4,396.8,176.4,400.7z M253,270.3c-3.4-3.4-6.9-7-10.4-10.4
		c-10.8-10.6-20.2-19.8-20.5-28.2c-0.2-4.9,2.8-10.3,9.1-16.6c18.4-18.4,62.1-41.7,88.8-43.1c0.6,0,1.2,0,1.7-0.1
		c7-0.1,12,1.3,15,4.3s4.4,8,4.3,15c0,0.6-0.1,1.1-0.1,1.6c-1.4,26.8-24.7,70.5-43.1,88.9c-6.3,6.3-11.7,9.2-16.6,9.1
		C272.9,290.5,263.7,281.2,253,270.3z"/>
</g>
</svg>
