<?xml version="1.0" encoding="utf-8"?>
<!-- Generator: Adobe Illustrator 23.1.1, SVG Export Plug-In . SVG Version: 6.00 Build 0)  -->
<svg version="1.1" id="Layer_1" xmlns="http://www.w3.org/2000/svg" xmlns:xlink="http://www.w3.org/1999/xlink" x="0px" y="0px"
	 viewBox="0 0 512 512" style="enable-background:new 0 0 512 512;" xml:space="preserve">
<style type="text/css">
	.st0{fill:none;stroke:#0094C5;stroke-width:11;stroke-miterlimit:10;}
	.st1{fill:#0094C5;}
</style>
<circle class="st0" cx="257.9" cy="256.2" r="242"/>
<path class="st1" d="M273.2,86.4c11.6-3.8,23.1-3.6,34.7,0c0.1,0,0.2,0,0.3,0.1c8.8,4,17.8,4,27,1.8c3.4-0.8,6.9-1.1,10.4-1.3
	c8.8-0.7,16.2,2.4,22.3,8.7c4,4.1,7.7,8.5,11.4,12.8c5,6,11.2,10.1,18.4,12.9c3.6,1.4,7.2,2.9,10.7,4.5c5.1,2.3,9.6,5.4,12.7,10.4
	c0.2,0.3,0.7,0.5,1,0.8c0.4,1,0.9,1.9,1.3,2.9c0.4,2.4,1.1,4.9,1.2,7.3c0.2,4.3,0.5,8.7,0.1,13.1c-0.5,6.4,1.3,11.7,5.4,16.6
	c3.7,4.4,7.1,9.3,9.7,14.5c6.2,12.4,5.4,24.9-1.2,37.1c-2.2,4.1-4.8,8.1-7.3,12.1c-2.6,4.2-3.5,8.6-2.7,13.5c1,5.7,2,11.4,2.5,17.1
	c0.9,11.3-3.6,20-13.6,25.3c-5.1,2.7-10.5,5-15.8,7.3c-4.7,2.1-8.5,5.2-11,9.8c-2.3,4.1-4.6,8.2-7.1,12.2
	c-3.4,5.4-7.5,10.1-13.1,13.2c-0.5,0.3-0.8,0.9-1.3,1.3c-1.3,0.6-2.6,1.2-3.8,1.8c-1.4,0.3-2.7,0.5-4.1,0.8
	c-6.5,1.4-12.7,0.1-19-1.4c-3.9-1-7.9-1.9-11.8-2.4c-6.1-0.8-11.1,1.4-15,6.5c-3.1,4-6.2,7.9-11,10.1c-5.2,2.4-10.4,2.5-15.6,0.6
	c-2.8-1-5.5-2.3-8.3-3.5c-6.8-3-16-2.7-21.9,5.9c-2.9,4.3-6.2,8.5-10.1,11.9c-8.2,7.2-18,8.1-28.3,5.9c-4.3-0.9-8.5-2.2-12.8-3.2
	c-10.7-2.4-20.6,0.1-29.5,6.1c-16,10.9-31.8,22.3-47.8,33.3c-12.9,8.9-26.4,10.5-40.2,2.1c-4.6-2.8-8.3-6.6-10.9-11.3
	c-0.4-0.7-1-1.2-1.5-1.8c-0.4-1-0.9-1.9-1.3-2.9c-0.5-1.8-0.9-3.6-1.4-5.4c-1.8-7.5-1.6-15.2-0.9-22.8c1.8-20.3,7.2-39.7,13.8-58.9
	c13.8-39.6,32.8-76.4,57.4-110.1c5.7-7.8,11.6-15.4,18-22.6c5.7-6.5,9.1-14.3,12.8-22c5.2-10.7,11.1-20.8,19.8-29
	c7.6-7.2,16.5-12.2,26.5-14.6c10.5-2.5,19.1-8,27.2-14.9c2.6-2.3,5.8-3.9,8.7-5.8c0.7-0.5,1.3-1.1,2-1.7c1.8-0.8,3.5-1.6,5.3-2.4
	C268.2,87.8,270.7,87.2,273.2,86.4z M230.9,146.1c29-2.9,56,2.9,79.4,21.2c19.6,15.4,28.8,36.7,29.3,61.5c0.7,30.6-9.6,57-32.1,77.8
	c-4.3,4-9.6,7.1-14.7,10.2c-3.6,2.2-7.6,0.7-9.4-2.9c-1.9-3.7-0.8-7.9,2.8-9.9c20.9-11.7,31.8-30.7,37.1-53.5
	c3.1-13.4,3-26.9-1-40.1c-5.4-18.2-16.7-31.6-33.5-39.8c-20.1-9.9-41.3-13.5-63.5-8.5c-10.5,2.4-20.2,6.8-29.4,12.6
	c-13.4,8.4-25,18.8-35.4,30.7c-1.7,2-3.2,4.2-4.8,6.4c0.2,0.2,0.3,0.3,0.5,0.5c2.1-1.1,4.1-2.2,6.2-3.3c10.5-5.9,21.9-9.2,33.9-9.3
	c19.8-0.2,38.2,4.4,53.7,17.6c19.5,16.5,27.3,43.4,19.7,67.3c-4.2,13.4-12.6,23.2-25.9,27.8c-4,1.4-8.4,1.9-12.6,2.1
	c-5.2,0.3-10.5,0-15.8-0.3c-16.3-1-30.5,4.4-43.3,14.3c-2.9,2.2-5.6,4.5-8.4,6.8c-3.4,2.8-7.9,2.7-10.4-0.3c-2.8-3.2-2.4-7.7,1-10.7
	c9.6-8.6,20.1-15.8,32.1-20.4c10-3.9,20.5-4.6,31.1-4.2c4.4,0.2,8.8,0.4,13.1,0.4c9.5,0,17-4.1,21.8-12.5
	c6.5-11.3,7.4-23.3,3.4-35.6c-7.1-22.1-23.6-32.7-45.1-36.6c-10.3-1.9-20.6-1.6-30.7,1.6c-11.3,3.6-20.8,10.1-29.4,18.1
	c-14.3,13.4-25.1,29.4-34.1,46.8c-13.4,26.1-22.9,53.6-27.4,82.8c-1.2,8-2.1,16.1-0.5,24.2c2.8,14.9,19,21.8,31.4,13.2
	c12.2-8.5,24.2-17.3,36.4-25.7c9.7-6.6,19.6-13,29.8-19c10.6-6.2,21.5-11.7,32.3-17.3c4.2-2.2,8.5-0.7,10.3,3.2
	c1.7,3.7,0.3,7.6-3.3,9.5c-3.7,1.9-7.4,3.8-11,5.7c-0.3,0.2-0.6,0.5-1.3,1c7.7,2.2,15,5.3,22.6,2.1c2.7-1.2,5.1-3.7,7.2-6
	c2.3-2.4,4.1-5.3,6.1-8c8.4-11.3,23.5-13,33.5-9.6c2.6,0.9,5.1,2,7.6,3.1c6.4,2.9,8.2,2.5,12.7-2.9c2.2-2.7,4.5-5.5,7.2-7.7
	c6.1-4.9,13.3-6.8,21-5.9c5.4,0.6,10.6,2.2,16,3.1c3.5,0.6,7.1,1.3,10.6,1c4.8-0.4,8.4-3.6,11.2-7.3c2.8-3.9,5.4-7.9,7.6-12.2
	c5.5-11.2,14.8-17.4,26.1-21.4c3.4-1.2,6.7-3.1,9.8-5c3.8-2.4,4.8-6.3,4.3-10.5c-0.6-5.1-1.4-10.2-2.3-15.3c-1.6-8.9,0-17,4.9-24.5
	c2.1-3.2,4.1-6.5,6-9.8c6.2-10.7,5.2-20.9-2-30.7c-2.7-3.7-5.5-7.3-8.3-11c-3.4-4.7-4.9-10-4.9-15.8c0-5,0-10,0.1-14.9
	c0-5-2.5-8.4-6.8-10.4c-1.9-0.9-3.8-1.9-5.8-2.6c-13.9-4.5-25.2-12.7-34.1-24.4c-1.7-2.3-3.8-4.4-5.8-6.5c-3.5-3.8-7.8-5.4-12.8-4.7
	c-5.1,0.7-10.2,1.4-15.3,2.3c-7.2,1.3-14.1,0.6-21-1.9c-8.3-3-16.8-4.9-25.8-3.2c-11.6,2.2-21.5,7.7-30,16.2
	c1.2-0.2,2.4-0.4,3.6-0.7c28.5-7.3,55.9-2.9,82.5,8.3c16.5,6.9,30.6,17.3,41.7,31.6c13.9,18,20.5,38.7,21,61.4
	c0.6,32.8-9.6,61.8-31.4,86.3c-7.6,8.5-16.6,15.3-26.9,20.1c-3.8,1.8-7.7,0.2-9.5-3.6c-1.7-3.7-0.4-7.7,3.2-9.5
	c17.7-8.6,30-22.6,38.6-40.1c11.1-22.5,14.6-46.2,9.4-70.9c-5.4-25.7-20-44.7-42.5-57.1c-23.2-12.8-48-18.4-74.4-14.2
	c-14.6,2.4-28.2,7.8-40.8,15.5c-2.3,1.4-4.5,2.7-6.8,4.1c-0.5,0.3-0.9,0.8-1.4,1.2c0,0.2,0.1,0.3,0.1,0.5
	C223.3,147.5,227.1,146.5,230.9,146.1z M208.6,135.9c0.2,0.3,0.3,0.5,0.5,0.8c2.6-1.7,5.2-3.3,7.8-5c-0.2-0.3-0.3-0.5-0.5-0.8
	C213.8,132.6,211.2,134.2,208.6,135.9z"/>
</svg>
