<?xml version="1.0" encoding="utf-8"?>
<!-- Generator: Adobe Illustrator 23.1.1, SVG Export Plug-In . SVG Version: 6.00 Build 0)  -->
<svg version="1.1" id="Layer_1" xmlns="http://www.w3.org/2000/svg" xmlns:xlink="http://www.w3.org/1999/xlink" x="0px" y="0px"
	 viewBox="0 0 512 512" style="enable-background:new 0 0 512 512;" xml:space="preserve">
<style type="text/css">
	.st0{fill:none;stroke:#0094C5;stroke-width:11;stroke-miterlimit:10;}
	.st1{fill:#0094C5;}
</style>
<circle class="st0" cx="257.6" cy="255.9" r="242"/>
<path class="st1" d="M236.4,269.5c-3.1-3.1-6.3-6.4-9.5-9.5c-9.9-9.7-18.5-18.2-18.8-25.8c-0.2-4.5,2.6-9.4,8.3-15.2
	c16.9-16.9,56.9-38.2,81.4-39.5c0.6,0,1.1,0,1.6-0.1c6.4-0.1,11,1.2,13.8,3.9c2.8,2.8,4,7.3,3.9,13.8c0,0.6-0.1,1-0.1,1.5
	c-1.3,24.6-22.6,64.6-39.5,81.5c-5.8,5.8-10.7,8.4-15.2,8.3C254.6,288,246.2,279.5,236.4,269.5 M166.1,389c0,8-6.5,14.4-14.4,14.4
	c-5.3,0-10.1-2.8-12.6-7.3l14.3-26.8c2.6,1.3,5.4,2.3,8.3,2.9C165.1,384.3,166.1,385.5,166.1,389 M103.4,393.1
	c-5.6-5.6-5.6-14.8,0-20.3c2.2-2.2,1.4-1.4,32.7-18.2l5.8,5.8c-16.5,31-16,30.5-18.2,32.7C118.1,398.7,108.9,398.7,103.4,393.1
	 M187,350.2l-2.1,2.1c-8.4,8.4-22.1,8.4-30.5,0l-10.2-10.2c-8.4-8.4-8.4-22.1,0-30.5l2.1-2.1c1.8,4.6,4.5,8.8,8.1,12.3l20.4,20.4
	C178.2,345.7,182.4,348.4,187,350.2 M197.6,247.9c3.4,6.1,8.7,11.8,14.8,17.9c3.8,3.8,7.1,6.9,13.8,13.8c7.7,7.9,14.7,15,22.4,19.3
	l-1.6,1.6c-8.3,8.3-25.1,11.6-33.7,3L193,283c-8.3-8.3-5.2-25.1,2.8-33.4c0.1-0.1,0.1-0.1,0.2-0.2L197.6,247.9z M182.8,293.2
	l20.3,20.4c5.9,5.9,13.5,8.6,21.5,9.1l-9.3,9.3c-8.4,8.4-22.1,8.4-30.5,0l-20.4-20.4c-8.4-8.4-8.4-22.2,0-30.5l9.3-9.3
	C174.1,280.3,177.3,287.7,182.8,293.2 M100.3,357.2c-4.5-2.5-7.3-7.2-7.3-12.6c0-8,6.5-14.4,14.4-14.4c3.6,0,4.8,0.9,16.9,4.5
	c0.6,2.8,1.7,5.6,2.9,8.3L100.3,357.2z M292.7,152.7c2.8-2.8,7.3-2.8,10.2,0c2.8,2.8,2.8,7.3,0,10.2c-1.5,1.5-3.1,1.9-4.3,2.1h-1.1
	c-1.8-0.1-3.5-0.8-4.8-2.1C290,160,290,155.6,292.7,152.7 M343.7,193.4c2.8,2.8,2.8,7.3,0,10.2c-2.8,2.8-7.3,2.8-10.2,0
	c-1.3-1.3-2-3-2.1-4.9v-1v-0.2v-0.1c0.2-1.6,0.9-2.9,2-4C336.4,190.7,340.9,190.7,343.7,193.4 M167.6,200.7H188l13.5,13.5
	c-3.6,4.5-5.9,9-7,13.4L167.6,200.7z M161.8,186.3l24.6-49.1c3.6,2.6,7.5,4.5,11.7,5.9l-12.7,43.4L161.8,186.3z M189.6,120.7
	L189.6,120.7c-10-11.4-9.4-28.7,1.3-39.3c11-11,38.9-23.8,53.6-23l-23,23c-8.4,8.4-8.4,22.1,0,30.5l10.2,10.2
	C219.8,134.1,200.3,133.1,189.6,120.7 M282.3,295l14.3,14.3v20.4L268.9,302C273.4,300.9,277.8,298.6,282.3,295 M353.8,299.3
	c1.5,4.2,3.5,8.1,6.1,11.6L311,335.4v-23.6L353.8,299.3z M384.4,274.9c8.4,8.4,22.1,8.4,30.5,0l23-23c0.8,15.5-12.3,42.8-23,53.5
	c-11.3,11.3-29.4,11.3-40.7,0c-4.4-4.4-7.2-10.1-8.2-16.2c-1.3-9.1,1.7-18,8.2-24.5L384.4,274.9z M205.2,352.3
	c7.7-1.1,14.9-4.7,20.4-10.2l31.5-31.5l34.2,34.2c6.8,6.8,16.9,8.1,24.9,4l54.9-27.4c17,11,39.4,8.9,54-5.8
	c15.1-15.1,39-62.8,20.4-81.5c-2.8-2.8-7.3-2.8-10.2,0l-30.5,30.5c-2.8,2.8-7.3,2.8-10.2,0l-14.9-14.9c-2.6-2.6-6.6-2.8-9.4-0.6
	c-2.4,1.8-4.5,3.6-6.2,5.3c-8.2,8.2-12.7,19-12.7,30.4l-45.6,13.3l-13.3-13.3c13.3-15.6,29.1-42.8,35.7-67.4
	c8.2,4.5,18.7,3.2,25.6-3.7c4.9-4.9,6.9-11.5,6.1-17.7c11.9-4.4,25.4-1.6,34.6,7.5c2.8,2.8,7.3,2.8,10.2,0c2.8-2.8,2.8-7.3,0-10.2
	c-13.5-13.5-33.7-17.4-51.1-10.4c-7-6.9-17.5-8-25.7-3.4c-1.3-2.5-2.8-4.7-4.7-6.6c-1.8-1.9-4.1-3.5-6.6-4.7
	c4.6-8.2,3.4-18.7-3.4-25.7c7.2-17.5,3.1-37.6-10.4-51.1c-2.8-2.8-7.3-2.8-10.2,0c-2.8,2.8-2.8,7.3,0,10.2c9.2,9.2,12,22.6,7.5,34.6
	c-6.3-0.7-12.9,1.4-17.7,6.1c-7,7-8.2,17.4-3.7,25.6c-24.6,6.7-51.8,22.5-67.4,35.8l-12.5-12.5l13.6-46.4c11-0.3,21.4-4.8,29.3-12.7
	c1.7-1.7,3.5-3.9,5.3-6.2c2.2-2.8,1.9-6.9-0.6-9.4l-14.9-14.9c-2.8-2.8-2.8-7.3,0-10.2l30.5-30.5c2.8-2.8,2.8-7.3,0-10.2
	c-18.2-18.2-65.7,4.7-81.5,20.4c-14.9,14.9-16.7,38.1-5,55.1L148.5,181c-2.1,4.3-2.8,9.2-1.8,13.9v0.1c0.8,4.1,2.8,8,5.9,10.9
	l33.4,33.4c-0.1,0.1-0.2,0.2-0.2,0.2s-0.1,0-0.1,0.1l-31.3,31.3c-5.5,5.5-9.1,12.7-10.2,20.3l-10.2,10.2c-5,5-8.4,11.5-9.8,18.2
	c-6.7-1.8-10.3-3.8-16.7-3.8c-15.9,0-28.8,12.9-28.8,28.8c0,8.7,3.9,17,10.8,22.6c-7.2,11.2-6,26.3,3.8,36c9.7,9.7,24.9,11,36,3.8
	c5.5,6.9,13.8,10.8,22.6,10.8c15.9,0,28.8-12.9,28.8-28.8c0-6.4-1.9-10-3.8-16.7c6.9-1.4,13.2-4.8,18.2-9.8L205.2,352.3z"/>
</svg>
