<?xml version="1.0" encoding="utf-8"?>
<!-- Generator: Adobe Illustrator 23.1.1, SVG Export Plug-In . SVG Version: 6.00 Build 0)  -->
<svg version="1.1" id="Calque_1" xmlns="http://www.w3.org/2000/svg" xmlns:xlink="http://www.w3.org/1999/xlink" x="0px" y="0px"
	 viewBox="0 0 512 512" style="enable-background:new 0 0 512 512;" xml:space="preserve">
<style type="text/css">
	.st0{fill:none;stroke:#0094C5;stroke-width:11;stroke-miterlimit:10;}
	.st1{fill:#0094C5;}
</style>
<circle class="st0" cx="257.9" cy="256.2" r="242"/>
<g>
	<path id="Shape" class="st1" d="M257.9,96.7c-100.6,0-182.5,51.9-182.5,115.6c0.1,5.5,0.8,11.1,1.9,16.6
		C83,263,104.5,340.5,184.9,370.4v24.4c0,2.1,1,3.9,2.7,5c0.8,0.5,20.4,13.2,70.3,13.2s69.5-12.6,70.3-13.2c1.7-1.2,2.7-3,2.7-5
		v-24.4c80.4-30.1,101.9-107.6,107.6-141.5c1.2-5.4,1.8-11,1.9-16.6C440.4,148.6,358.5,96.7,257.9,96.7z M318.6,391.1
		c-28.4,13-93.3,13-121.7,0v-16.6c39.9,11,81.8,11,121.7,0V391.1z M323.2,360.5c-42.4,13.3-87.9,13.3-130.3,0
		c-42.2-14.3-75.9-46.8-91.5-88.6c70.3,74.6,243.1,74.6,313.1-0.1C401.1,304.9,375.3,344.1,323.2,360.5L323.2,360.5z M424.2,234.5
		c-17.2,47-87.1,81.1-166.3,81.1s-149.1-34.1-166.3-81.1c-2.6-7.1-4-14.7-4-22.3c-1.2-57,76.5-103.3,170.3-103.3
		s171.5,46.3,170.3,103.3C428.2,219.8,426.7,227.4,424.2,234.5L424.2,234.5z"/>
	<path class="st1" d="M257.9,121c-94.6,0-176.1,52.1-154.8,109.4c15.2,41.7,81.8,73.1,154.8,73.1s139.7-31.5,154.9-73.3
		c2.2-5.8,3.2-11.9,3.4-17.9C416,162.8,343.5,121,257.9,121z M257.9,133.2c58.6,0,111.7,21,134.4,49.3
		c-71.6-49.5-197.1-49.7-268.9,0C146,154.1,199.3,133.2,257.9,133.2L257.9,133.2z M401.3,226c-13.5,37.3-75.2,65.3-143.5,65.3
		S128,263.4,114.4,226.1c-2.3-5.8-3.1-12.3-2.3-18.4c66.2-66.6,224.7-67.1,291.4,0C404.3,213.8,403.5,220.2,401.3,226z"/>
	<path class="st1" d="M148.3,224.4c0,3.4,2.7,6.1,6.1,6.1s6.1-2.7,6.1-6.1c0-20.5,39.1-42.6,97.4-42.6c3.4,0,6.1-2.7,6.1-6.1
		c0-3.4-2.7-6.1-6.1-6.1C196.5,169.7,148.3,193.7,148.3,224.4z"/>
	<path class="st1" d="M251.8,273.1c0,3.4,2.7,6.1,6.1,6.1c61.4,0,109.5-24,109.5-54.7c0-3.4-2.7-6.1-6.1-6.1s-6.1,2.7-6.1,6.1
		c0,20.5-39.1,42.6-97.4,42.6C254.5,267,251.8,269.7,251.8,273.1z"/>
	<path class="st1" d="M263.9,242.6c0-3.4-2.7-6.1-6.1-6.1c-22.7,0-36.5-7.9-36.5-12.1c0-3.4-2.7-6.1-6.1-6.1s-6.1,2.7-6.1,6.1
		c0,16,24.5,24.4,48.6,24.4C261.2,248.8,263.9,246.1,263.9,242.6z"/>
	<path class="st1" d="M251.8,206.2c0,3.4,2.7,6.1,6.1,6.1c22.7,0,36.5,7.9,36.5,12.1c0,3.4,2.7,6.1,6.1,6.1s6.1-2.7,6.1-6.1
		c0-16-24.5-24.4-48.6-24.4C254.5,200,251.8,202.7,251.8,206.2z"/>
</g>
</svg>
